<?xml version="1.0" standalone="no"?><!DOCTYPE svg PUBLIC "-//W3C//DTD SVG 1.1//EN" "http://www.w3.org/Graphics/SVG/1.1/DTD/svg11.dtd"><svg t="1515057843637" class="icon" style="" viewBox="0 0 1024 1024" version="1.1" xmlns="http://www.w3.org/2000/svg" p-id="1306" xmlns:xlink="http://www.w3.org/1999/xlink" width="200" height="200"><defs><style type="text/css"></style></defs><path d="M375.008 740h46.016v-46.016h-46.016V740z m-182.016-91.008h364.992V329.984H192.992v319.008z m46.016-273.984H512v228H239.008v-228zM284 740h46.016v-46.016H284V740z m319.008-91.008h46.016v-46.016h-46.016v46.016zM444 922.016h136q11.008 0 16.992-6.496t6.016-16.512-6.016-16.512T580 876H444q-11.008 0-16.992 6.496t-6.016 16.512 6.016 16.512T444 922.016zM192.992 740h46.016v-46.016h-46.016V740z m592-91.008h46.016v-46.016h-46.016v46.016z m0-90.976h46.016V512h-46.016v46.016z m0-92h46.016v-44.992h-46.016v44.992z m-181.984-91.008h228v-44.992h-228v44.992z m272.992-136H716.992V148h68q19.008 0 32.512-13.504t13.504-32.512V56.992q0-19.008-13.504-32.512t-32.512-13.504H512q-19.008 0-32.512 13.504t-13.504 32.512v44.992q0 19.008 13.504 32.512T512 148h68v91.008H148q-19.008 0-32.512 13.504T101.984 284v683.008q0 19.008 13.504 32.512T148 1013.024h728q19.008 0 32.512-13.504t13.504-32.512V284q0-18.016-13.504-31.488T876 239.008zM558.016 102.016H512V57.024h46.016v44.992z m44.992-45.024h182.016v44.992H603.008V56.992z m68 91.008v91.008h-44.992V148h44.992zM876 967.008H148v-136h728v136z m0-182.016H148V284h728v500.992z m-181.984-136h46.016v-46.016h-46.016v46.016z m-91.008-182.976h46.016v-44.992h-46.016v44.992zM740 420.992h-46.016v44.992H740v-44.992zM694.016 740h136.992v-46.016H694.016V740z m-91.008-181.984h46.016V512h-46.016v46.016z m91.008 0h46.016V512h-46.016v46.016z" fill="" p-id="1307"></path></svg>