<?xml version="1.0" standalone="no"?><!DOCTYPE svg PUBLIC "-//W3C//DTD SVG 1.1//EN" "http://www.w3.org/Graphics/SVG/1.1/DTD/svg11.dtd"><svg t="1515057985555" class="icon" style="" viewBox="0 0 1027 1024" version="1.1" xmlns="http://www.w3.org/2000/svg" p-id="4191" xmlns:xlink="http://www.w3.org/1999/xlink" width="200.5859375" height="200"><defs><style type="text/css"></style></defs><path d="M1026.948782 651.990734v14.005609l-1.482679 2.874115a108.281147 108.281147 0 0 1-31.683697 62.432167l-0.707124 1.391437-310.221949 270.029959-0.661503 0.159673a69.070005 69.070005 0 0 1-74.749804 16.400704l-1.961697 0.410588L53.809899 836.435932l-0.661503-0.821176a76.14124 76.14124 0 0 1-52.14466-64.485107l-1.003659-1.254574v-490.424406l0.479019-0.843986a64.530728 64.530728 0 0 1 27.942786-50.182962l0.228104-0.410588 1.505489-0.798365a65.100989 65.100989 0 0 1 10.469991-5.451695L443.320929 11.633323h0.752744a77.920454 77.920454 0 0 1 40.100749-11.222735 78.969735 78.969735 0 0 1 24.908998 4.083068l1.300195-0.136862 481.984544 145.074382 1.665162 1.984508a40.12356 40.12356 0 0 1 33.006703 39.142711V652.150407zM45.52971 779.569511l570.397799 188.551076V432.828051L45.52971 268.159503v511.410008z m46.510482-543.435862l536.478679 147.537909 145.188434-93.203447-496.514792-149.476797z m385.496393-198.10865l-153.924832 79.106597 491.610548 146.671113 137.546938-88.299203z m503.17544 178.993503l-319.346125 204.449951v540.607368l319.346125-288.780138V217.018502zM418.206637 556.34657l-204.358709-61.01792a22.42266 22.42266 0 0 1 11.610512-43.339832l204.35871 61.017921a22.42266 22.42266 0 0 1-11.610513 43.339831z" p-id="4192"></path></svg>